<svg xmlns="http://www.w3.org/2000/svg" version="1.1" xmlns:xlink="http://www.w3.org/1999/xlink" xmlns:svgjs="http://svgjs.dev/svgjs" viewBox="0 0 1422 800"><defs><filter id="uuunion-blur" x="-100%" y="-100%" width="400%" height="400%" color-interpolation-filters="sRGB">
        <feGaussianBlur in="SourceGraphic" stdDeviation="7.5 0.5" result="blur"></feGaussianBlur>
        <feDropShadow stdDeviation="24.615384615384617" in="blur" dx="20" dy="20" flood-color="hsl(138, 69%, 40%)" flood-opacity="0.41" x="0%" y="0%" width="100%" height="100%"></feDropShadow>
      </filter><filter id="uuunion-blur2" x="-100%" y="-100%" width="400%" height="400%" color-interpolation-filters="sRGB">
        <feGaussianBlur in="SourceGraphic" stdDeviation="7.5 0.5" result="blur"></feGaussianBlur>
        <feDropShadow stdDeviation="24.615384615384617" in="blur" dx="-20" dy="-20" flood-color="hsl(138, 69%, 40%)" flood-opacity="0.41" x="0%" y="0%" width="100%" height="100%"></feDropShadow>
      </filter><linearGradient gradientTransform="rotate(120, 0.5, 0.5)" x1="50%" y1="0%" x2="50%" y2="100%" id="uuunion-grad"><stop stop-color="hsl(112, 53%, 69%)" offset="10%"></stop><stop stop-color="hsl(138, 69%, 40%)" offset="90%"></stop></linearGradient><linearGradient gradientTransform="rotate(135, 0.5, 0.5)" x1="50%" y1="0%" x2="50%" y2="100%" id="uuunion-grad2"><stop stop-color="hsl(112, 53%, 69%)" offset="25%"></stop><stop stop-color="hsl(138, 69%, 40%)" offset="100%"></stop></linearGradient><linearGradient gradientTransform="rotate(139, 0.5, 0.5)" x1="50%" y1="0%" x2="50%" y2="100%" id="uuunion-grad3"><stop stop-color="hsl(112, 53%, 69%)" offset="0%"></stop><stop stop-color="hsl(138, 69%, 40%)" offset="75%"></stop></linearGradient></defs><path d="M-138.97 -75.42Q-125.74 -79.47 -112.51 -83.65 -99.28 -86.96 -86.06 -88.6 -72.83 -88.19 -59.6 -85.82 -46.37 -82.06 -33.14 -77.81 -19.91 -74.08 -6.69 -71.76 6.53 -71.41 19.76 -73.11 32.99 -76.46 46.22 -80.65 59.45 -84.68 72.67 -87.6 85.9 -88.69 99.13 -87.71 112.36 -84.89 125.59 -80.9 138.81 -76.69 152.04 -73.27 165.27 -71.46 178.5 -71.68 191.73 -73.9 204.96 -77.57 218.18 -81.82 231.41 -85.63 244.64 -88.1 257.87 -88.63 271.1 -87.1 284.33 -83.87 297.55 -79.72 310.78 -75.63 324.01 -72.59 337.24 -71.31 350.47 -72.11 363.69 -74.79 376.92 -78.72 390.15 -82.95 403.38 -86.47 416.61 -88.45 429.84 -88.41 443.06 -86.36 456.29 -82.79 469.52 -78.55 482.75 -74.65 495.98 -72.04 509.21 -71.32 522.43 -72.68 535.66 -75.78 548.89 -79.89 562.12 -84.03 575.35 -87.2 588.58 -88.65 601.8 -88.03 615.03 -85.5 628.26 -81.65 641.49 -77.4 654.72 -73.78 667.95 -71.64 681.17 -71.49 694.4 -73.38 707.63 -76.85 720.86 -81.07 734.09 -85.03 747.31 -87.79 760.54 -88.69 773.77 -87.51 787 -84.54 800.23 -80.48 813.46 -76.3 826.68 -73.01 839.91 -71.39 853.14 -71.82 866.37 -74.2 879.6 -77.97 892.83 -82.22 906.05 -85.94 919.28 -88.24 932.51 -88.57 945.74 -86.85 958.97 -83.49 972.2 -79.3 985.42 -75.27 998.65 -72.37 1011.88 -71.3 1025.11 -72.3 1038.34 -75.13 1051.57 -79.13 1064.79 -83.34 1078.02 -86.75 1091.25 -88.54 1104.48 -88.29 1117.71 -86.06 1130.94 -82.38 1144.16 -78.13 1157.39 -74.33 1170.62 -71.88 1183.85 -71.36 1197.08 -72.91 1210.31 -76.15 1223.53 -80.31 1236.76 -84.4 1249.99 -87.43 1263.22 -88.68 1276.45 -87.86 1289.68 -85.17 1302.9 -81.23 1316.13 -77 1329.36 -73.49 1342.59 -71.53 1355.82 -71.59 1369.05 -73.66 1382.27 -77.24 1395.5 -81.48 1408.73 -85.37 1421.96 -87.97 1435.19 -88.67 1448.42 -87.29 1461.64 -84.17 1474.87 -80.06 1488.1 -75.93 1501.33 -72.77 1514.56 -71.34 1527.79 -71.97 1539.64 -68.93 1529.55 -48.29 1530.54 -33.25 1540.96 -18.2 1557.9 -3.16 1576.59 11.88 1591.82 26.92 1599.3 41.97 1596.95 57.01 1585.42 72.06 1567.94 87.1 1549.42 102.15 1535.03 117.19 1528.82 132.24 1532.52 147.28 1545.09 162.33 1563.02 177.37 1581.28 192.42 1594.75 207.46 1599.66 222.51 1594.63 237.55 1581.08 252.6 1562.79 267.64 1544.9 282.69 1532.42 297.73 1528.83 312.78 1535.16 327.82 1549.62 342.87 1568.17 357.91 1585.6 372.96 1597.03 388 1599.27 403.05 1591.67 418.09 1576.38 433.14 1557.68 448.18 1540.8 463.23 1530.47 478.27 1529.6 493.32 1538.42 508.36 1554.46 523.41 1573.23 538.45 1589.47 553.5 1598.63 568.54 1598.14 583.59 1588.14 598.63 1571.43 613.68 1552.69 628.73 1537.18 643.77 1529.24 658.82 1531.09 673.86 1542.22 688.91 1559.5 703.95 1578.1 719 1592.81 734.04 1599.49 749.09 1596.29 764.13 1584.09 779.18 1566.32 794.22 1547.96 809.27 1534.14 824.31 1528.74 839.36 1533.28 854.4 1546.48 869.45 1564.64 884.49 1551.31 895.27 1537.97 902.4 1524.64 904.18 1511.3 900.18 1497.96 891.36 1484.63 879.82 1471.29 868.33 1457.96 859.62 1444.62 855.78 1431.28 857.72 1417.95 864.99 1404.61 875.83 1391.28 887.68 1377.94 897.69 1364.61 903.47 1351.27 903.64 1337.93 898.17 1324.6 888.35 1311.26 876.54 1297.93 865.55 1284.59 858.02 1271.25 855.73 1257.92 859.24 1244.58 867.71 1231.25 879.11 1217.91 890.72 1204.57 899.78 1191.24 904.1 1177.9 902.67 1164.57 895.82 1151.23 885.19 1137.9 873.32 1124.56 863.05 1111.22 856.82 1097.89 856.13 1084.55 861.14 1071.22 870.65 1057.88 882.4 1044.54 893.57 1031.21 901.5 1017.87 904.29 1004.54 901.28 991.2 893.19 977.87 881.94 964.53 870.23 951.19 860.85 937.86 856.04 924.52 856.96 911.19 863.38 897.85 873.77 884.51 885.64 871.18 896.17 857.84 902.83 844.51 904.04 831.17 899.5 817.84 890.31 804.5 878.65 791.16 867.31 777.83 859 764.49 855.71 751.16 858.22 737.82 865.93 724.49 877 711.15 888.78 697.81 898.47 684.48 903.74 671.14 903.34 657.81 897.37 644.47 887.24 631.13 875.38 617.8 864.63 604.46 857.54 591.13 855.82 577.79 859.87 564.46 868.73 551.12 880.28 537.78 891.77 524.45 900.43 511.11 904.22 497.78 902.22 484.44 894.91 471.1 884.04 457.77 872.2 444.43 862.22 431.1 856.49 417.76 856.37 404.43 861.9 391.09 871.75 377.75 883.56 364.42 894.53 351.08 902.02 337.75 904.25 324.41 900.69 311.08 892.18 297.74 880.77 284.4 869.16 271.07 860.15 257.73 855.87 244.4 857.36 231.06 864.26 217.73 874.91 204.39 886.78 191.05 897.03 177.72 903.21 164.38 903.84 151.05 898.78 137.71 889.23 124.37 877.48 111.04 866.32 97.7 858.44 84.37 855.7 71.03 858.76 57.7 866.9 44.36 878.17 31.02 889.87 17.69 899.21 4.35 903.97 -8.97 902.99 -22.31 896.53 -35.64 886.11 -48.98 874.24 -62.32 863.74 -75.65 857.12 -88.99 855.97 -102.32 860.55 -115.66 869.79 -132.73 879.55 -132.19 862.52 -130.73 847.39 -132.47 832.26 -136.94 817.14 -142.87 802.01 -148.62 786.88 -152.56 771.75 -153.59 756.62 -151.43 741.49 -146.68 726.37 -140.67 711.24 -135.08 696.11 -131.48 680.98 -130.89 665.85 -133.45 650.73 -138.47 635.6 -144.52 620.47 -149.92 605.34 -153.16 590.21 -153.31 575.08 -150.35 559.96 -145.11 544.83 -139.04 529.7 -133.85 514.57 -131 499.44 -131.28 484.32 -134.62 469.19 -140.08 454.06 -146.12 438.93 -151.07 423.8 -153.52 408.67 -152.8 393.55 -149.1 378.42 -143.47 363.29 -137.47 348.16 -132.8 333.03 -130.76 317.9 -131.91 302.78 -135.95 287.65 -141.73 272.52 -147.64 257.39 -152.02 242.26 -153.65 227.14 -152.06 212.01 -147.71 196.88 -141.8 181.75 -136.01 166.62 -131.95 151.49 -130.75 136.37 -132.76 121.24 -137.41 106.11 -143.4 90.98 -149.05 75.85 -152.77 60.73 -153.53 45.6 -151.11 30.47 -146.19 15.34 -140.15 0.21 -134.68 -14.91 -131.31 -30.03 -130.99 -45.16 -133.8 -60.29 -138.97 -75.42" fill="url(#uuunion-grad)"></path><path d="M-138.98 -75.42Q-133.81 -60.29 -131 -45.16 -131.32 -30.03 -134.69 -14.9 -140.16 0.22 -146.2 15.34 -151.12 30.47 -153.54 45.6 -152.78 60.73 -149.06 75.86 -143.41 90.99 -137.42 106.11 -132.77 121.24 -130.76 136.37 -131.96 151.5 -136.02 166.63 -141.81 181.76 -147.72 196.88 -152.07 212.01 -153.66 227.14 -152.03 242.27 -147.65 257.4 -141.74 272.52 -135.96 287.65 -131.92 302.78 -130.76 317.91 -132.81 333.04 -137.48 348.17 -143.48 363.29 -149.11 378.42 -137.38 395.84 -117.01 388.6 -107.89 385.35 -98.76 383.68 -89.63 383.76 -80.5 385.58 -71.37 388.95 -62.24 393.51 -53.11 398.76 -43.98 404.14 -34.85 409.08 -25.72 413.05 -8.47 416.25 -5.42 416.45 5.89 411.43 17.3 404 28.8 394.89 40.36 385.12 51.98 375.78 63.63 367.9 75.32 362.27 87.02 359.29 98.71 358.91 110.4 360.66 122.06 363.73 133.69 367.07 145.27 369.61 156.79 370.41 168.26 368.84 179.66 364.65 190.99 358.04 202.25 349.59 213.43 340.21 224.55 330.94 235.59 322.79 246.58 316.6 257.5 312.86 268.38 311.66 279.22 312.65 290.02 315.15 300.81 318.21 311.58 320.79 322.36 321.96 333.15 321.02 343.96 317.6 354.81 311.79 365.71 304.03 376.66 295.12 387.67 286.03 398.76 277.73 409.92 271.09 421.17 266.68 432.5 264.69 443.92 264.92 455.42 266.81 467.01 269.49 478.67 272.01 490.41 273.43 502.21 273.01 514.06 270.3 525.96 265.26 537.89 258.22 549.84 249.84 561.78 241.01 573.72 232.67 585.63 225.69 597.5 220.7 609.3 217.99 621.03 217.47 632.67 218.7 644.2 220.95 655.61 223.3 666.9 224.86 678.04 224.85 689.04 222.77 699.88 218.46 710.57 212.13 721.1 204.33 731.47 195.85 741.69 187.58 751.75 180.37 761.68 174.89 771.48 171.52 781.17 170.28 790.75 170.85 800.26 172.59 809.7 174.7 819.1 176.29 828.49 176.6 837.87 175.05 847.29 171.41 856.77 165.78 866.32 158.59 875.97 150.52 885.76 142.41 895.69 135.08 905.8 129.21 916.09 125.27 926.59 123.35 937.32 123.26 948.28 124.46 959.48 126.23 970.94 127.76 982.64 128.27 994.6 127.17 1006.81 124.14 1019.26 119.18 1031.93 112.61 1044.82 105.01 1057.91 97.14 1071.17 89.78 1084.58 83.64 1098.12 79.19 1111.75 76.66 1125.44 75.91 1139.16 76.55 1152.88 77.93 1166.56 79.3 1180.17 79.92 1193.67 79.17 1207.02 76.67 1220.2 72.33 1233.17 66.38 1245.9 59.29 1258.37 51.73 1270.55 44.44 1282.42 38.11 1293.96 33.27 1305.16 30.18 1316.02 28.81 1326.52 28.87 1336.66 29.81 1346.46 30.95 1355.92 31.58 1365.05 31.08 1373.88 29.03 1382.43 25.26 1390.72 19.91 1398.78 13.34 1406.66 6.16 1414.38 -0.96 1422 -7.38 1403.53 -24.67 1392.05 -41.96 1391.89 -59.25 1403.11 -76.54 1421.47 -93.83 1440.03 -111.12 1445.69 -135.61 1426.98 -139.36 1414.34 -136.04 1401.7 -133.52 1389.07 -132.33 1376.43 -132.7 1363.79 -134.56 1351.15 -137.54 1338.52 -141.01 1325.88 -144.28 1313.24 -146.67 1300.61 -147.7 1287.97 -147.15 1275.33 -145.14 1262.69 -142.08 1250.06 -138.59 1237.42 -135.39 1224.78 -133.13 1212.14 -132.27 1199.51 -132.99 1186.87 -135.14 1174.23 -138.29 1161.6 -141.78 1148.96 -144.91 1136.32 -147.03 1123.68 -147.72 1111.05 -146.82 1098.41 -144.54 1085.77 -141.32 1073.14 -137.83 1060.5 -134.79 1047.86 -132.81 1035.22 -132.3 1022.59 -133.36 1009.95 -135.78 997.31 -139.06 984.68 -142.53 972.04 -145.48 959.4 -147.32 946.76 -147.65 934.13 -146.42 921.49 -143.88 908.85 -140.54 896.22 -137.09 883.58 -134.24 870.94 -132.56 858.3 -132.4 845.67 -133.79 833.03 -136.45 820.39 -139.84 807.75 -143.25 795.12 -146 782.48 -147.53 769.84 -147.51 757.21 -145.96 744.57 -143.19 731.93 -139.76 719.29 -136.39 706.66 -133.75 694.02 -132.39 681.38 -132.58 668.75 -134.29 656.11 -137.16 643.47 -140.62 630.83 -143.94 618.2 -146.46 605.56 -147.66 592.92 -147.29 580.29 -145.43 567.65 -142.46 555.01 -138.99 542.37 -135.72 529.74 -133.32 517.1 -132.29 504.46 -132.83 491.83 -134.84 479.19 -137.9 466.55 -141.39 453.91 -144.59 441.28 -146.86 428.64 -147.72 416 -147 403.37 -144.85 390.73 -141.71 378.09 -138.22 365.45 -135.09 352.82 -132.96 340.18 -132.27 327.54 -133.16 314.9 -135.45 302.27 -138.66 289.63 -142.15 276.99 -145.2 264.36 -147.18 251.72 -147.7 239.08 -146.64 226.44 -144.22 213.81 -140.94 201.17 -137.47 188.53 -134.51 175.9 -132.68 163.26 -132.34 150.62 -133.56 137.98 -136.1 125.35 -139.44 112.71 -142.89 100.07 -145.75 87.44 -147.43 74.8 -147.59 62.16 -146.21 49.52 -143.55 36.89 -140.16 24.25 -136.75 11.61 -133.99 -1.01 -132.46 -13.65 -132.48 -26.29 -134.02 -38.93 -136.79 -51.56 -140.22 -64.2 -143.59 -76.84 -146.24 -89.48 -147.6 -102.11 -147.41 -114.75 -145.71 -127.39 -142.84 -140.02 -139.38 -152.66 -136.05 -165.3 -133.53 -162.39 -118.84 -156.33 -104.26 -148.02 -89.79 -138.98 -75.42" fill="url(#uuunion-grad2)" filter="url(#uuunion-blur)"></path><path d="M1393.35 308.77Q1410.69 305.66 1428.02 307.25 1436.68 310.61 1445.35 314.98 1454.01 319.89 1462.68 324.81 1471.35 329.21 1480.01 332.62 1497.34 334.35 1514.67 331.36 1523.34 327.49 1532 322.81 1546.8 340.36 1568.17 357.91 1588.03 375.47 1598.89 393.02 1596.63 410.57 1582.1 428.12 1560.81 445.68 1540.8 463.23 1529.63 480.78 1531.53 498.33 1545.78 515.89 1566.99 533.44 1587.15 550.99 1598.63 568.54 1597.09 586.1 1583.11 603.65 1561.98 621.2 1541.69 638.76 1529.91 656.31 1531.09 673.86 1544.79 691.41 1565.82 708.97 1586.24 726.52 1598.33 744.07 1597.51 761.62 1584.09 779.18 1563.16 796.73 1542.61 814.28 1530.23 831.83 1530.69 849.39 1543.81 866.94 1564.64 884.49 1552.41 894.49 1540.18 901.56 1527.95 904.29 1515.71 902.11 1503.48 895.48 1491.25 885.73 1479.02 874.82 1466.78 864.95 1454.55 858.12 1442.32 855.7 1430.09 858.17 1417.85 865.05 1405.62 874.94 1393.39 885.85 1381.16 895.58 1368.93 902.17 1356.69 904.28 1344.46 901.5 1332.23 894.38 1320 884.36 1307.76 873.46 1295.53 863.88 1283.3 857.55 1271.07 855.74 1258.83 858.82 1246.6 866.17 1234.37 876.31 1222.14 887.19 1209.9 896.62 1197.67 902.7 1185.44 904.2 1173.21 900.82 1160.97 893.24 1148.74 882.99 1136.51 872.13 1124.28 862.87 1112.05 857.05 1099.81 855.86 1087.58 859.54 1075.35 867.34 1063.12 877.7 1050.88 888.51 1038.65 897.61 1026.42 903.16 1014.19 904.04 1001.95 900.07 989.72 892.05 977.49 881.6 965.26 870.83 953.02 861.91 940.79 856.63 928.56 856.06 916.33 860.32 904.1 868.55 891.86 879.08 879.63 889.8 867.4 898.54 855.17 903.54 842.93 903.79 830.7 899.25 818.47 890.82 806.24 880.21 794 869.55 781.77 861.01 769.54 856.29 757.31 856.35 745.07 861.17 732.84 869.8 720.61 880.48 708.38 891.06 696.14 899.41 683.91 903.85 671.68 903.47 659.45 898.37 647.22 889.56 634.98 878.82 622.75 868.31 610.52 860.17 598.29 856.02 586.05 856.7 573.82 862.09 561.59 871.08 549.36 881.87 537.12 892.28 524.89 900.22 512.66 904.07 500.43 903.08 488.19 897.43 475.96 888.26 463.73 877.43 451.5 867.11 439.26 859.4 427.03 855.83 414.8 857.14 402.57 863.06 390.34 872.39 378.1 883.25 365.87 893.46 353.64 900.96 341.41 904.22 329.17 902.6 316.94 896.43 304.71 886.94 292.48 876.05 280.24 865.95 268.01 858.69 255.78 855.72 243.55 857.65 231.31 864.08 219.08 873.72 206.85 884.63 194.62 894.6 182.38 901.62 170.15 904.29 157.92 902.06 145.69 895.37 133.46 885.59 121.22 874.68 108.99 864.84 96.76 858.06 84.53 855.7 72.29 858.23 60.06 865.16 47.83 875.08 35.6 885.99 23.36 895.69 6.34 898.17 3.89 883.95 5.6 873.79 6.48 863.63 6.42 853.47 5.42 843.3 2.66 828.07 2.21 823 13.03 814.23 23.97 801.2 35.12 785.35 46.53 768.73 58.23 753.51 70.25 741.57 82.59 734.07 95.21 731.22 108.08 732.28 121.15 735.68 134.36 739.37 147.63 741.26 160.92 739.67 174.15 733.65 187.28 723.19 200.27 709.23 213.09 693.4 225.74 677.73 238.23 664.2 250.57 654.31 262.81 648.79 274.99 647.45 287.14 649.21 299.34 652.37 311.62 654.93 324.02 655.07 336.59 651.46 349.32 643.59 362.24 631.84 375.31 617.4 388.53 602.02 401.83 587.61 415.18 575.89 428.49 567.96 441.72 564.14 454.79 563.88 467.63 565.89 480.21 568.4 492.47 569.59 504.41 567.9 516.03 562.42 527.34 553.01 538.39 540.39 549.24 525.92 559.98 511.35 570.71 498.42 581.51 488.51 592.5 482.35 603.78 479.89 615.44 480.29 627.56 482.12 640.18 483.68 653.33 483.33 667.02 479.86 681.21 472.72 695.84 462.14 710.81 449.07 726.02 434.97 741.33 421.48 756.6 410.13 771.67 401.95 786.39 397.31 800.64 395.83 814.28 396.47 824.35 401.12 834.39 405.45 844.4 408.75 854.38 410.44 864.33 410.14 874.24 407.74 884.13 403.4 893.97 397.5 903.78 390.66 913.55 383.58 923.28 377.02 932.97 371.66 942.62 368.01 952.22 366.38 961.78 366.82 971.3 369.1 980.78 372.76 990.2 377.18 999.59 381.63 1008.93 385.37 1018.22 387.77 1027.47 388.37 1036.68 386.93 1045.84 383.48 1054.95 378.31 1064.02 371.93 1073.05 364.99 1082.04 358.23 1090.99 352.35 1099.89 347.94 1108.76 345.4 1117.59 344.89 1126.38 346.31 1135.14 349.32 1143.87 353.36 1152.56 357.76 1161.23 361.79 1169.87 364.78 1187.07 364.66 1204.2 358.78 1212.74 352.98 1221.26 346.33 1229.78 339.52 1238.29 333.27 1246.79 328.21 1255.29 324.83 1272.29 324.8 1289.32 329.74 1297.85 333.94 1306.39 338.1 1323.56 342.76 1340.79 342.37 1349.46 338.86 1358.16 333.74 1366.9 327.51 1375.67 320.81 1384.49 314.35 1393.35 308.77" fill="url(#uuunion-grad3)" filter="url(#uuunion-blur2)"></path></svg>